<svg width="346" height="346" viewBox="0 0 346 346" fill="none" xmlns="http://www.w3.org/2000/svg">
<path d="M324.72 0H21.27C9.52289 0 0 9.52292 0 21.27V324.72C0 336.467 9.52289 345.99 21.27 345.99H324.72C336.467 345.99 345.99 336.467 345.99 324.72V21.27C345.99 9.52292 336.467 0 324.72 0Z" fill="#BF822B"/>
<path d="M154.57 104.66L156.3 105.02C166.7 106.3 177.82 112.27 185.06 119.67C188.2 122.88 191.27 125.79 194.18 129.21C210.54 148.34 223.56 173.84 241.15 189.43C252.3 199.32 269.2 204.08 280.36 192.42L287.28 184.18C289.72 181.28 292.76 178.83 296.6 178.3C300.74 177.72 304.84 179.33 307.86 182.05C311.91 185.7 313.08 190.93 311.62 196.08C309.7 202.84 306 208.49 301.13 213.52C293.16 221.75 282.96 226.59 271.4 227.23C252.09 228.31 234.45 220.35 220.09 207.72C213.34 201.78 207.57 195.27 202.12 188.11C196.81 181.12 192.23 174.02 187.25 166.79L173.05 146.18C169.77 141.42 165.59 137.63 160.38 135.08C157.34 133.59 153.88 134.14 151.23 136.18C145.03 140.95 141.77 150.2 139.81 157.89C137.13 168.44 134.81 178.74 132.87 189.49L127.43 219.59C125.91 228.03 124.29 236.08 122.22 244.38C119.42 255.61 107.06 259.87 96.2299 258.5C86.2399 257.24 82.8299 249.18 82.5699 239.69L81.9599 217.71L80.5599 193.6C80.1099 185.94 76.9499 173.14 72.7299 166.8C71.0199 164.23 67.9599 163.92 65.4199 165.62C61.7499 168.09 59.5099 171.82 57.7899 175.9C54.2399 184.33 45.9099 192.62 36.5799 192.92C31.9899 192.85 28.4999 189.6 28.2099 185.12L27.9299 184.98L27.9599 180.86C28.5799 178.11 29.3999 175.51 30.6099 172.85L34.3799 164.51C39.5599 153.03 44.7799 142.76 55.6799 135.49C63.2099 130.47 72.8399 130.57 79.8999 136.62C86.8399 142.57 91.9099 150.34 95.5499 158.76C97.5399 163.36 98.9299 167.85 100.33 172.62C100.9 174.58 101.74 176.26 103.19 177.96C105.3 175.64 106.18 173.02 106.82 170.01C109.72 156.23 112.96 141.34 118.88 128.69C124.97 115.67 133.55 106.57 148.04 104.76L154.56 104.68L154.57 104.66Z" fill="#F8F5F1"/>
</svg>
